<svg xmlns="http://www.w3.org/2000/svg" xmlns:xlink="http://www.w3.org/1999/xlink" viewBox="0,0,256,256" width="10px" height="10px" fill-rule="nonzero"><g fill="#198754" fill-rule="nonzero" stroke="none" stroke-width="1" stroke-linecap="butt" stroke-linejoin="miter" stroke-miterlimit="10" stroke-dasharray="" stroke-dashoffset="0" font-family="none" font-weight="none" font-size="none" text-anchor="none" style="mix-blend-mode: normal"><g transform="scale(16,16)"><path d="M4.5,2c-0.82422,0 -1.5,0.67578 -1.5,1.5v9c0,0.82422 0.67578,1.5 1.5,1.5h7c0.82422,0 1.5,-0.67578 1.5,-1.5v-7.20703l-3.29297,-3.29297zM4.5,3h4.5v3h3v6.5c0,0.28125 -0.21875,0.5 -0.5,0.5h-7c-0.28125,0 -0.5,-0.21875 -0.5,-0.5v-9c0,-0.28125 0.21875,-0.5 0.5,-0.5zM10,3.70703l1.29297,1.29297h-1.29297zM6,8v1h4v-1zM6,10v1h3v-1z"></path></g></g></svg>